<mxfile host="app.diagrams.net" modified="2023-06-14T06:14:02.599Z" agent="Mozilla/5.0 (X11; Linux x86_64) AppleWebKit/537.36 (KHTML, like Gecko) Chrome/113.0.0.0 Safari/537.36" etag="qqByVKQ-9h_TPogDUbBP" version="21.3.8" type="github">
  <diagram name="Page-1" id="tH6A9zRQEQZF8u2iKxFu">
    <mxGraphModel dx="1362" dy="775" grid="1" gridSize="10" guides="1" tooltips="1" connect="1" arrows="1" fold="1" page="1" pageScale="1" pageWidth="850" pageHeight="1100" math="0" shadow="0">
      <root>
        <mxCell id="0" />
        <mxCell id="1" parent="0" />
        <mxCell id="IYZiqdjHJJGi1RUnnPEa-6" value="Staging EC2 instance&amp;nbsp;" style="points=[[0,0],[0.25,0],[0.5,0],[0.75,0],[1,0],[1,0.25],[1,0.5],[1,0.75],[1,1],[0.75,1],[0.5,1],[0.25,1],[0,1],[0,0.75],[0,0.5],[0,0.25]];outlineConnect=0;gradientColor=none;html=1;whiteSpace=wrap;fontSize=12;fontStyle=0;container=1;pointerEvents=0;collapsible=0;recursiveResize=0;shape=mxgraph.aws4.group;grIcon=mxgraph.aws4.group_ec2_instance_contents;strokeColor=#D86613;fillColor=none;verticalAlign=top;align=left;spacingLeft=30;fontColor=#D86613;dashed=0;" vertex="1" parent="1">
          <mxGeometry x="30" y="300" width="169.5" height="139.5" as="geometry" />
        </mxCell>
        <mxCell id="IYZiqdjHJJGi1RUnnPEa-8" value="" style="rounded=1;arcSize=10;dashed=1;fillColor=none;gradientColor=none;dashPattern=1 1;strokeWidth=2;" vertex="1" parent="IYZiqdjHJJGi1RUnnPEa-6">
          <mxGeometry x="-15" y="-30" width="199.5" height="199.5" as="geometry" />
        </mxCell>
        <mxCell id="IYZiqdjHJJGi1RUnnPEa-7" value="Produciton Server" style="points=[[0,0],[0.25,0],[0.5,0],[0.75,0],[1,0],[1,0.25],[1,0.5],[1,0.75],[1,1],[0.75,1],[0.5,1],[0.25,1],[0,1],[0,0.75],[0,0.5],[0,0.25]];outlineConnect=0;gradientColor=none;html=1;whiteSpace=wrap;fontSize=12;fontStyle=0;container=1;pointerEvents=0;collapsible=0;recursiveResize=0;shape=mxgraph.aws4.group;grIcon=mxgraph.aws4.group_ec2_instance_contents;strokeColor=#D86613;fillColor=none;verticalAlign=top;align=left;spacingLeft=30;fontColor=#D86613;dashed=0;" vertex="1" parent="IYZiqdjHJJGi1RUnnPEa-6">
          <mxGeometry y="89.5" width="130" height="50" as="geometry" />
        </mxCell>
        <mxCell id="IYZiqdjHJJGi1RUnnPEa-9" value="Staging Server" style="points=[[0,0],[0.25,0],[0.5,0],[0.75,0],[1,0],[1,0.25],[1,0.5],[1,0.75],[1,1],[0.75,1],[0.5,1],[0.25,1],[0,1],[0,0.75],[0,0.5],[0,0.25]];outlineConnect=0;gradientColor=none;html=1;whiteSpace=wrap;fontSize=12;fontStyle=0;container=1;pointerEvents=0;collapsible=0;recursiveResize=0;shape=mxgraph.aws4.group;grIcon=mxgraph.aws4.group_ec2_instance_contents;strokeColor=#D86613;fillColor=none;verticalAlign=top;align=left;spacingLeft=30;fontColor=#D86613;dashed=0;" vertex="1" parent="IYZiqdjHJJGi1RUnnPEa-6">
          <mxGeometry y="39.5" width="130" height="50" as="geometry" />
        </mxCell>
        <mxCell id="IYZiqdjHJJGi1RUnnPEa-12" value="&lt;b&gt;Node Exporter&lt;/b&gt;" style="text;html=1;strokeColor=none;fillColor=none;align=center;verticalAlign=middle;whiteSpace=wrap;rounded=0;" vertex="1" parent="IYZiqdjHJJGi1RUnnPEa-6">
          <mxGeometry x="30" y="-30" width="95" height="30" as="geometry" />
        </mxCell>
        <mxCell id="IYZiqdjHJJGi1RUnnPEa-13" value="&lt;b&gt;Neuroshield Application&lt;/b&gt;" style="text;html=1;strokeColor=none;fillColor=none;align=center;verticalAlign=middle;whiteSpace=wrap;rounded=0;" vertex="1" parent="1">
          <mxGeometry x="30" y="230" width="170.25" height="30" as="geometry" />
        </mxCell>
      </root>
    </mxGraphModel>
  </diagram>
</mxfile>
